<?xml version="1.0" encoding="UTF-8"?>
<!-- Svg Vector Icons : http://www.onlinewebfonts.com/icon -->
<!DOCTYPE svg PUBLIC "-//W3C//DTD SVG 1.1//EN" "http://www.w3.org/Graphics/SVG/1.1/DTD/svg11.dtd">
<svg version="1.1" xmlns="http://www.w3.org/2000/svg" xmlns:xlink="http://www.w3.org/1999/xlink" x="0px" y="0px" viewBox="0 0 1000 1000" enable-background="new 0 0 1000 1000" xml:space="preserve">
<metadata> Svg Vector Icons : http://www.onlinewebfonts.com/icon </metadata>
<g><g><g><path d="M566.5,218c0-36.2-29.4-65.7-65.6-65.7c-36.2,0-65.6,29.4-65.6,65.7c0,36.2,29.4,65.6,65.6,65.6C537,283.6,566.5,254.2,566.5,218z"/><path d="M948,648.1l-90-178.9l-178.9,90.1c-52,26.2-73,89.9-46.8,142c4.2,8.2,9.2,15.7,15.1,22.4c-12,11.2-25.7,20.9-40.8,29V532.5c53.6-5.1,95.6-50.4,95.6-105.2c0-32.5-14.8-61.6-37.9-81.1c28.1-35.7,44.6-80.6,44.6-128.2c0-114.7-93.3-208-208-208c-114.7,0-208,93.3-208,208c0,48.3,16.9,93.8,45.7,129.7c-22.1,19.4-36.1,47.9-36.1,79.5c0,53.9,40.5,98.4,92.6,104.9v218.7c-14.9-8.3-28.4-18.3-40.3-29.7c5-6,9.3-12.7,13-19.9c26.2-52,5.1-115.7-46.9-141.9l-178.8-90.1l-90,178.9c-12.7,25.2-14.8,53.9-5.9,80.7C55,755.6,73.8,777.4,99,790c14.7,7.4,31.1,11.3,47.6,11.3c1.1,0,2.1,0,3.2-0.1C221.9,916.5,355.3,990,502.3,990c146.2,0,280.1-73.6,352.4-188.7c16-0.2,32-4.1,46.3-11.3C953.1,763.9,974.2,700.2,948,648.1z M870,728.3c-5.3,2.7-10.9,3.9-16.4,3.9c-12.8,0-25-6.9-31.7-18.6c-46.8,120.6-172.2,207.3-319.6,207.3c-149.3,0-276.2-89-321.5-212.1l-1.7,3.3c-6.4,12.8-19.3,20.2-32.7,20.2c-5.6,0-11.2-1.2-16.4-3.9c-18.1-9.1-25.3-31.1-16.2-49.1l58.9-117.1L289.8,621c18.1,9.1,25.3,31.1,16.2,49.1c-9.1,18.1-31.1,25.3-49.2,16.2l-8-4c30.7,85.3,113.9,149.5,215.4,162.6V463.9h-56c-20.2,0-36.6-16.4-36.6-36.6c0-20.2,16.4-36.6,36.6-36.6h56v-39C405.4,335.6,362,281.8,362,218c0-76.6,62.3-138.8,138.8-138.8c76.6,0,138.8,62.2,138.8,138.8c0,63.9-43.4,117.6-102.2,133.8v39h59c20.2,0,36.6,16.4,36.6,36.6c0,20.2-16.4,36.6-36.6,36.6h-59v381.5c104-12.3,189.3-78.3,219.4-165.9l-13.7,6.9c-18,9-40,1.8-49.1-16.2c-9.1-18-1.8-40,16.2-49.1l117.1-58.9l58.9,117.1C895.3,697.2,888,719.2,870,728.3z"/></g></g><g/><g/><g/><g/><g/><g/><g/><g/><g/><g/><g/><g/><g/><g/><g/></g>
</svg>